<svg width="28" height="28" viewBox="0 0 28 28" fill="none" xmlns="http://www.w3.org/2000/svg">
<g id="Nav Icons">
<path id="Vector" d="M25.6673 15.7243V20.9999C25.6673 21.9282 25.2986 22.8184 24.6422 23.4748C23.9858 24.1312 23.0956 24.4999 22.1673 24.4999H5.83398C4.90573 24.4999 4.01549 24.1312 3.35911 23.4748C2.70273 22.8184 2.33398 21.9282 2.33398 20.9999V15.7243L2.97915 16.0474C6.39857 17.7697 10.174 18.6666 14.0027 18.6662C17.8313 18.6658 21.6066 17.7681 25.0257 16.0451L25.6673 15.7243ZM16.334 2.33325C17.2622 2.33325 18.1525 2.702 18.8089 3.35838C19.4652 4.01476 19.834 4.90499 19.834 5.83325V6.99992H22.1673C23.0956 6.99992 23.9858 7.36867 24.6422 8.02504C25.2986 8.68142 25.6673 9.57166 25.6673 10.4999V13.1156L23.9791 13.9603C20.9587 15.4829 17.6298 16.2941 14.2475 16.3317C10.8651 16.3693 7.51906 15.6323 4.46548 14.1773L3.71065 13.8039L2.33398 13.1156V10.4999C2.33398 9.57166 2.70273 8.68142 3.35911 8.02504C4.01549 7.36867 4.90573 6.99992 5.83398 6.99992H8.16732V5.83325C8.16732 4.90499 8.53607 4.01476 9.19244 3.35838C9.84882 2.702 10.7391 2.33325 11.6673 2.33325H16.334ZM14.0007 11.6666C13.6912 11.6666 13.3945 11.7895 13.1757 12.0083C12.9569 12.2271 12.834 12.5238 12.834 12.8333C12.8332 12.9865 12.8626 13.1383 12.9206 13.2802C12.9785 13.422 13.0638 13.551 13.1716 13.6599C13.2794 13.7688 13.4075 13.8554 13.5488 13.9147C13.6901 13.974 13.8416 14.005 13.9948 14.0058C14.148 14.0065 14.2999 13.9771 14.4417 13.9192C14.5836 13.8613 14.7126 13.776 14.8215 13.6682C14.9304 13.5604 15.0169 13.4322 15.0763 13.2909C15.1356 13.1497 15.1666 12.9981 15.1673 12.8449C15.1673 12.1893 14.6447 11.6666 14.0007 11.6666ZM16.334 4.66659H11.6673C11.3579 4.66659 11.0612 4.7895 10.8424 5.00829C10.6236 5.22709 10.5007 5.52383 10.5007 5.83325V6.99992H17.5007V5.83325C17.5007 5.52383 17.3777 5.22709 17.1589 5.00829C16.9401 4.7895 16.6434 4.66659 16.334 4.66659Z" fill="#F2EBFB"/>
</g>
</svg>
