<svg width="28" height="28" viewBox="0 0 28 28" fill="none" xmlns="http://www.w3.org/2000/svg">
<g id="Nav Icons">
<path id="Vector" d="M21 3.5C22.2377 3.5 23.4247 3.99167 24.2998 4.86683C25.175 5.742 25.6667 6.92899 25.6667 8.16667V17.5C25.6667 18.7377 25.175 19.9247 24.2998 20.7998C23.4247 21.675 22.2377 22.1667 21 22.1667H15.4887L9.933 25.4998C9.76569 25.6002 9.57587 25.6571 9.3809 25.6651C9.18594 25.6732 8.99207 25.6323 8.81704 25.546C8.642 25.4598 8.49139 25.331 8.37899 25.1715C8.2666 25.012 8.196 24.8268 8.17367 24.633L8.16667 24.5V22.1667H7C5.80272 22.1667 4.65124 21.7065 3.78372 20.8813C2.91621 20.0562 2.39903 18.9291 2.33917 17.7333L2.33334 17.5V8.16667C2.33334 6.92899 2.825 5.742 3.70017 4.86683C4.57534 3.99167 5.76233 3.5 7 3.5H21ZM16.3333 14H9.33334C9.02392 14 8.72717 14.1229 8.50838 14.3417C8.28959 14.5605 8.16667 14.8572 8.16667 15.1667C8.16667 15.4761 8.28959 15.7728 8.50838 15.9916C8.72717 16.2104 9.02392 16.3333 9.33334 16.3333H16.3333C16.6428 16.3333 16.9395 16.2104 17.1583 15.9916C17.3771 15.7728 17.5 15.4761 17.5 15.1667C17.5 14.8572 17.3771 14.5605 17.1583 14.3417C16.9395 14.1229 16.6428 14 16.3333 14ZM18.6667 9.33333H9.33334C9.02392 9.33333 8.72717 9.45625 8.50838 9.67504C8.28959 9.89383 8.16667 10.1906 8.16667 10.5C8.16667 10.8094 8.28959 11.1062 8.50838 11.325C8.72717 11.5437 9.02392 11.6667 9.33334 11.6667H18.6667C18.9761 11.6667 19.2728 11.5437 19.4916 11.325C19.7104 11.1062 19.8333 10.8094 19.8333 10.5C19.8333 10.1906 19.7104 9.89383 19.4916 9.67504C19.2728 9.45625 18.9761 9.33333 18.6667 9.33333Z" fill="#E3E3E3"/>
</g>
</svg>
