<svg width="28" height="28" viewBox="0 0 28 28" fill="none" xmlns="http://www.w3.org/2000/svg">
<g id="Nav Icons">
<path id="Vector" d="M14.8256 2.67508L25.3256 13.1751C26.0606 13.9101 25.5402 15.1666 24.5007 15.1666H23.3341V22.1666C23.3341 23.0948 22.9653 23.9851 22.3089 24.6415C21.6526 25.2978 20.7623 25.6666 19.8341 25.6666H18.6674V17.4999C18.6675 16.6072 18.3264 15.7481 17.7139 15.0986C17.1015 14.4491 16.2639 14.0581 15.3727 14.0057L15.1674 13.9999H12.8341C11.9058 13.9999 11.0156 14.3687 10.3592 15.025C9.70282 15.6814 9.33407 16.5717 9.33407 17.4999V25.6666H8.1674C7.23915 25.6666 6.34891 25.2978 5.69253 24.6415C5.03615 23.9851 4.6674 23.0948 4.6674 22.1666V15.1666H3.50074C2.4624 15.1666 1.9409 13.9101 2.6759 13.1751L13.1759 2.67508C13.3947 2.45636 13.6914 2.3335 14.0007 2.3335C14.3101 2.3335 14.6068 2.45636 14.8256 2.67508ZM15.1674 16.3332C15.4768 16.3332 15.7736 16.4562 15.9924 16.675C16.2112 16.8937 16.3341 17.1905 16.3341 17.4999V25.6666H11.6674V17.4999C11.6674 17.2142 11.7724 16.9384 11.9622 16.7248C12.1521 16.5113 12.4138 16.3748 12.6976 16.3414L12.8341 16.3332H15.1674Z" fill="#FDFDFD"/>
</g>
</svg>
